<svg xmlns="http://www.w3.org/2000/svg" viewBox="0 0 1689.17 382.61"><defs><style>.cls-1,.cls-4{fill:#003262;}.cls-1,.cls-3{fill-rule:evenodd;}.cls-2,.cls-3{fill:#fdb515;}</style></defs><title>chipyard_sticker</title><g id="Layer_1" data-name="Layer 1"><path class="cls-1" d="M28.79,732.53ZM62.36,601.62H76.14l1.26,1.82,18,26a10.84,10.84,0,0,1,10.56,2.8v0a10.84,10.84,0,0,1,0,15.36v0a10.85,10.85,0,0,1-15.37,0l0,0a10.83,10.83,0,0,1-1.78-13L71.77,610H62.36v23.64H77.84V673H94.48a10.88,10.88,0,0,1,2.34-3.48l0,0a10.85,10.85,0,0,1,15.37,0v0a10.84,10.84,0,0,1,0,15.36v0a10.85,10.85,0,0,1-15.37,0l0,0a10.88,10.88,0,0,1-2.34-3.48h-25V642.05H62.36v90.23l0,.31,0,.3.09.92,0,.3,0,.31.09.6.11.59.06.3.06.29.07.3,0,.12H75.89V715.44a10.91,10.91,0,0,1-3.48-2.35h0a10.85,10.85,0,0,1,0-15.37h0a10.85,10.85,0,0,1,15.37,0h0a10.85,10.85,0,0,1,0,15.37h0a11.24,11.24,0,0,1-3.49,2.35V745H66.83l.21.29.18.23.17.24.18.23.18.23.19.22.19.23.19.22.19.22.2.22.19.21.21.21.2.21.2.21.21.21.21.2.22.2.21.2.22.2.22.19.22.19.23.19.22.18.23.19.23.17.23.18.24.18.24.17.24.17.24.16.24.17.25.16.25.15.25.16.25.15.25.15.26.14.25.15.26.14.26.13.27.14.26.12.27.13.27.13.27.12.27.11.27.12.27.11.28.11.28.1.28.1.28.1.28.1.28.09.29.08.29.09.28.08.29.08.3.07.29.07.29.07.3.06.29.06.3.05.3.06.3,0,.3.05.3,0,.3,0,.31,0,.3,0,.31,0,.31,0h.31l.31,0h26.79V720.83a11.08,11.08,0,0,1-3.48-2.35h0a10.85,10.85,0,0,1,0-15.37h0a10.82,10.82,0,0,1,15.36,0h0a10.85,10.85,0,0,1,0,15.37h0a11.08,11.08,0,0,1-3.48,2.35v34.52h123.3a24.16,24.16,0,0,0,14.23-4.65l0,0h0l.05,0,.05,0,.1-.07,0,0h0l0,0,.1-.07.05,0,0,0h0l0,0,.05,0,.1-.07,0,0,0,0,.15-.11,0,0h0l0,0,.09-.07.05,0,0,0h0l0,0,.05,0,0,0,.05,0,.05,0,0,0,.05,0,0,0,.05,0,0,0h0l0,0,.05,0,0,0,.05,0,0,0v0l.18-.16,0,0,0,0h0l.16-.15,0,0,0,0,0,0,0,0,.05-.05,0,0h0l0,0,0,0,.09-.08,0-.05h0l0,0,0,0,.05,0,0,0,0,0,.21-.21.2-.21.2-.21.2-.21.2-.22.19-.22.19-.22.19-.23.18-.22.18-.23.18-.23.18-.24.18-.23.17-.24.17-.24c.16-.24.33-.48.49-.73l.31-.5.15-.25c.15-.25.29-.51.44-.77l.14-.26c.18-.34.36-.69.52-1.05a23.71,23.71,0,0,0,1.36-3.61l.16-.58.14-.58.07-.29.12-.6,0-.29.06-.3.05-.3,0-.3,0-.3,0-.31,0-.3.06-.61,0-.31v-.31l0-.28H250.21l-13,7.51-2.09.57H220.2a11,11,0,0,1-2.34,3.49l0,0a10.85,10.85,0,0,1-15.37,0v0a10.85,10.85,0,0,1,0-15.37h0a10.85,10.85,0,0,1,15.37,0h0a11,11,0,0,1,2.34,3.49H234l13-7.51,2.08-.58h19.42v-24H211.85v-36.7a11,11,0,0,1-3.49-2.34v0a10.84,10.84,0,0,1,0-15.36v0a10.85,10.85,0,0,1,15.37,0l0,0a10.84,10.84,0,0,1,0,15.36l0,0a11,11,0,0,1-3.48,2.34v28.31h48.29V613.29H249.68v31.13a11.08,11.08,0,0,1,3.48,2.35h0a10.85,10.85,0,0,1,0,15.37l0,0a10.84,10.84,0,0,1-15.36,0l0,0a10.85,10.85,0,0,1,0-15.37h0a10.88,10.88,0,0,1,3.48-2.34V604.89h27.26V572.55l0-.31v-.31l0-.31-.06-.61,0-.3,0-.31,0-.3,0-.3-.05-.3-.06-.3,0-.3-.12-.59-.07-.29-.14-.58-.16-.58a23.32,23.32,0,0,0-1.36-3.61c-.16-.36-.34-.71-.52-1.06l-.14-.26-.44-.76-.15-.25-.31-.5c-.16-.25-.33-.49-.49-.73l-.17-.24-.17-.24-.18-.24-.17-.23-.19-.23-.18-.23-.18-.23-.19-.22-.19-.22-.19-.22-.2-.22L262,557l-.2-.22-.2-.21-.21-.21,0,0,0,0-.05,0,0-.05,0,0h0l0,0L261,556l0,0,0,0v0l0,0-.05,0,0,0,0,0,0,0h0l-.16-.15v0h0l0,0-.18-.16h0l0,0-.05,0,0,0-.05,0,0,0h0l0,0-.05,0,0,0-.05,0,0,0-.05,0-.05,0,0,0-.05,0,0,0h0l0,0-.05,0-.09-.08,0,0h0l0,0-.15-.12,0,0h0l-.1-.08-.05,0,0,0,0,0,0,0-.05,0-.1-.07,0,0h0l0,0-.1-.07-.05,0-.05,0h0l0,0a24.16,24.16,0,0,0-14.23-4.65H134.79l-20-33.59V486.81h8.39v28.77H138V486.81h8.39v28.77h14.83V486.81h8.4v28.77h14.82V486.81h8.4v28.77h14.82V486.81h8.4v28.77h16.66V486.81h8.4v28.77h3.08A57.43,57.43,0,0,1,274,523.84l.19.11.07,0,.13.08.37.23.09.06h0l.5.32.12.08.39.25.14.09,0,0,.44.3.16.11.47.32,0,0,0,0,.49.34.14.1.44.32,0,0,.13.1.37.27.14.11.38.28.09.08.09.06.35.27.11.09.06,0,.4.32.2.16.39.31,0,0h0l.17.14.3.25,0,0h0l.07.06.42.37,0,0,.13.12.34.29.05.05,0,0,.46.41,0,0,.09.08.35.33.16.14.32.31.16.15.38.36.06.06,0,0,0,0,.4.39.05.05.49.49.48.5.48.51.47.51.46.52.46.52.45.53.45.53.44.54.43.54.43.55.42.56.42.56.4.56.4.57.4.58c.26.38.52.77.77,1.16.75,1.18,1.46,2.38,2.13,3.61l.34.62.32.62q.48.95.93,1.89l.29.64a59.7,59.7,0,0,1,2.31,5.93q.76,2.37,1.34,4.81c.1.47.21.94.3,1.41l.14.7.14.71.12.72.11.71.11.72.1.72.09.73.07.72.07.73.06.74.06.73,0,.74,0,.74,0,.74v10.87h0v-6.3H330.9V585H302.12v16.66H330.9V610H302.12v14.83H330.9v8.4H302.12v14.82H330.9v8.4H302.12v14.82H330.9v8.4H302.12V694.5H330.9v8.4H302.12v10.43h0v19.2l0,.74,0,.74,0,.73-.06.74-.06.73-.07.73-.07.73-.09.72-.1.72-.11.72-.11.72-.12.71-.14.71-.14.71c-.09.47-.2.94-.3,1.4-.38,1.64-.83,3.24-1.34,4.82a60.49,60.49,0,0,1-2.31,5.92l-.29.64q-.45,1-.93,1.89l-.32.63-.34.61c-.67,1.23-1.38,2.44-2.13,3.61-.25.39-.51.78-.77,1.17l-.4.57-.4.57-.4.57-.42.56-.42.55-.43.55-.43.55-.44.54-.45.53-.45.53-.46.52-.46.52-.47.51-.48.51-.48.5-.49.49-.05,0-.4.39,0,0,0,0-.06.05-.38.37L284,773l-.32.3-.16.15-.35.33-.09.08,0,0-.46.41,0,0-.05,0-.34.3-.13.11,0,0-.42.36-.07.06h0l0,0-.3.25-.17.14h0l0,0-.39.32-.2.16-.4.32-.06,0-.11.1-.35.27-.09.06-.09.07-.38.29-.14.11-.37.27-.13.1,0,0-.44.32-.14.1-.49.34h0l0,0-.47.33-.16.11-.44.29,0,0-.14.09-.39.25-.12.08-.5.31,0,0-.09.06-.37.23-.13.08-.07,0-.19.11a57.42,57.42,0,0,1-29.72,8.25h-3.08v28.78h-8.4V788.93H216.09v28.78h-8.4V788.93H192.87v28.78h-8.4V788.93H169.65v28.78h-8.4V788.93H146.43v28.78H138V788.93H123.2v28.78h-8.39V788.93H97.48v28.78H89.09V788.93H85.92l-.74,0-.74,0-.74,0-.74,0-.73-.06-.74-.06-.73-.07-.72-.08-.73-.08-.72-.1-.72-.11-.71-.11-.72-.12-.71-.14-.7-.14-.71-.15-.7-.15-.7-.17-.69-.18-.69-.18-.69-.19-.68-.2-.68-.21-.68-.21-.68-.23-.66-.23-.67-.24-.66-.25-.66-.26-.66-.26-.65-.27-.65-.28-.64-.29-.64-.29-.63-.3L61,782.9l-.63-.32-.62-.32-.62-.33-.61-.34-.61-.35-.6-.35-.6-.36-.6-.37-.59-.37-.58-.38-.58-.39-.58-.4-.57-.4-.56-.4-.56-.42-.56-.42-.55-.43-.54-.43-.54-.44-.53-.45-.53-.45-.52-.46-.52-.46-.51-.47-.51-.48-.5-.48-.49-.49-.49-.49-.48-.5-.48-.51-.47-.51-.47-.52-.45-.52-.46-.53-.44-.53-.44-.54-.44-.55-.42-.55-.42-.55-.42-.56-.41-.57-.4-.57-.39-.57A57.61,57.61,0,0,1,29.81,742l-.13-.71-.12-.71-.12-.72-.1-.72-.1-.72-.09-.72-.08-.73-.07-.73-.06-.73-.05-.73,0-.74,0-.74,0-.74V728H0v-8.4H28.77V702.9H0v-8.4H28.77V679.68H0v-8.4H28.77V656.46H0v-8.4H28.77V633.24H0v-8.4H28.77V610H0v-8.39H62.36Zm37.73,36.57a2.55,2.55,0,0,0-3.53,0v0a2.51,2.51,0,0,0,0,3.52v0a2.55,2.55,0,0,0,3.53,0v0a2.51,2.51,0,0,0,0-3.52v0Zm6.19,37.24a2.54,2.54,0,0,0-3.52,0l0,0a2.54,2.54,0,0,0,0,3.52l0,0a2.54,2.54,0,0,0,3.52,0l0,0a2.54,2.54,0,0,0,0-3.52l0,0ZM81.85,703.62a2.51,2.51,0,0,0-3.52,0h0a2.55,2.55,0,0,0,0,3.53h0a2.51,2.51,0,0,0,3.52,0h0a2.55,2.55,0,0,0,0-3.53ZM118.49,709a2.51,2.51,0,0,0-3.52,0h0a2.55,2.55,0,0,0,0,3.53h0a2.51,2.51,0,0,0,3.52,0h0a2.55,2.55,0,0,0,0-3.53Zm93.43,25.1a2.51,2.51,0,0,0-3.52,0h0a2.55,2.55,0,0,0,0,3.53h0a2.51,2.51,0,0,0,3.52,0h0a2.55,2.55,0,0,0,0-3.53Zm5.89-83a2.55,2.55,0,0,0-3.53,0v0a2.51,2.51,0,0,0,0,3.52v0a2.55,2.55,0,0,0,3.53,0v0a2.51,2.51,0,0,0,0-3.52v0Zm29.43,1.59a2.54,2.54,0,0,0-3.52,0h0a2.51,2.51,0,0,0-.71,1.77,2.47,2.47,0,0,0,.71,1.76l0,0a2.54,2.54,0,0,0,3.52,0l0,0a2.47,2.47,0,0,0,.71-1.76,2.51,2.51,0,0,0-.71-1.77Zm54.88,67.53v8.4H330.9v-8.4ZM274,523.84Zm-13.62,31.49Zm7.28,11.53Zm.16.58Zm.14.58Zm.07.29Zm.12.59Zm0,.3Zm.06.3Zm.05.3Zm0,.3Zm0,.3Zm0,.31Zm0,.3Zm.06.61Zm0,.31Zm0,.31Zm0,.31Zm0,.31Zm0,.31ZM302.11,572Zm0-.74Zm0-.74Zm0-.74ZM302,569Zm-.06-.74Zm-.07-.73Zm-.07-.72Zm-.09-.73Zm-.1-.72Zm-.11-.72Zm-.11-.71Zm-.12-.72Zm-.14-.71Zm-.44-2.11Zm-1.34-4.81ZM297,549.69Zm-.29-.64Zm-.93-1.89Zm-.32-.62Zm-.34-.62ZM28.82,733.27Zm0,.74Zm0,.74Zm.05.73Zm.06.73Zm.07.73Zm.08.73Zm.09.72Zm.1.72Zm.1.72Zm.24,1.43Zm.13.71ZM274,780.68Zm21.16-22.09Zm.34-.61Zm.32-.62Zm.93-1.9Zm.29-.63Zm2.31-5.93Zm1.34-4.82Zm.44-2.11Zm.14-.71Zm.12-.71Zm.11-.72Zm.11-.72Zm.1-.72Zm.09-.72Zm.07-.73Zm.07-.73Zm.06-.73Zm.06-.73Zm0-.74Zm0-.74Zm0-.74Zm0-.75Zm-33.62.5Zm0,.31Zm0,.3Zm-.06.62Zm0,.3Zm0,.3Zm0,.31Zm0,.3Zm-.05.3Zm-.06.3Zm0,.29Zm-.12.59Zm-.07.3Zm-.14.58Zm-.16.58Zm-7.28,11.52ZM63,736.5Zm-.07-.3Zm-.06-.29Zm-.06-.3Zm-.11-.59Zm-.09-.6Zm0-.31Zm0-.3Zm-.09-.92Zm0-.3Zm0-.31Zm0-.31Zm0-.31Zm0-.31" transform="translate(0 -435.1)"/><path class="cls-2" d="M84.82,568.94h3.32l19.35-.06h0l19.35-.06h3.32l24.17,41.57-23.93,37-1.66-2.87Q106.77,606.71,84.82,568.94Z" transform="translate(0 -435.1)"/><polygon class="cls-2" points="139.22 304.72 139.22 226.6 161.76 191.78 171.21 177.17 184.28 156.99 199.8 133.01 244.43 133.01 184.38 226.37 184.38 304.72 139.22 304.72"/><path class="cls-3" d="M130.4,569.21,82.82,487.39l-45.43,0-.07,46a10.63,10.63,0,0,0-.41,20.56v4.37a16,16,0,0,0-8.43,4.41h0a16,16,0,0,0,0,22.59h0a16,16,0,0,0,22.6,0h0a15.92,15.92,0,0,0,4.7-11.3H50a10.18,10.18,0,0,1-3,7.24h0a10.27,10.27,0,0,1-14.47,0v0a10.24,10.24,0,0,1,0-14.47v0a10.18,10.18,0,0,1,7.24-3v0h2.88v-9.85a10.63,10.63,0,0,0-.33-20.56L42.39,496l42.67,73.35,45.34-.14Zm-25.12-28.08,14.12,24.29-28.09.08,14-24.37ZM50.17,494.76l27.63-.09-13.74,24L50.17,494.76Zm32.31,7.17L96.6,526.21l-28.09.08,14-24.36ZM73,534l27.65-.09-13.75,24Z" transform="translate(0 -435.1)"/><path class="cls-2" d="M912.09,514.43v-4.57a11.11,11.11,0,0,1,.39-21.5l0-53.19,5.24.25,0,52.94a11.11,11.11,0,0,1,.38,21.5v10.3h-3a10.68,10.68,0,0,0-7.58,3.12h0a10.74,10.74,0,0,0,0,15.15h0a10.73,10.73,0,0,0,15.14,0v0a10.65,10.65,0,0,0,3.14-7.57h6a16.71,16.71,0,0,1-4.9,11.82h0a16.68,16.68,0,0,1-23.63,0h0a16.71,16.71,0,0,1,0-23.63h0A16.68,16.68,0,0,1,912.09,514.43Z" transform="translate(0 -435.1)"/><path class="cls-4" d="M510.55,565v56.33Q500,609.5,489.44,604.05a48,48,0,0,0-22.52-5.51q-22.21,0-36,15.16t-13.75,39.57q0,22.74,14,37.73t35.7,15a48,48,0,0,0,22.52-5.51Q500,695,510.55,683.11v56.45a125,125,0,0,1-24.41,8.9,102.1,102.1,0,0,1-24.51,3,105.09,105.09,0,0,1-28.6-3.7,81.41,81.41,0,0,1-24.1-11.15,95.13,95.13,0,0,1-32.26-35.75q-11.12-21.62-11.11-48.56,0-21.69,7.05-39.44a96,96,0,0,1,21.24-32.22,88.53,88.53,0,0,1,30.28-20.67q16.78-6.81,37.5-6.83a102.59,102.59,0,0,1,24.51,2.95,125.62,125.62,0,0,1,24.41,8.9Zm29.09,181.71v-189h51.52V631.1h68.66V557.64h51.65v189H659.82V669.71H591.16v76.95Zm213.3,0v-189h52v189Zm141.91,0H873.63V633.27h19.71v14.48h26.17c10.16,0,23.82-10.65,23.82-23.67v-.55h44.58q-.25,15.86-5.4,28a51.7,51.7,0,0,1-16,21.11,50.13,50.13,0,0,1-18.86,8.91q-10.85,2.7-34.73,2.73H894.85v62.36Zm-27.08,0V627.41h25.57V615H867.77V557.64H846.55v189Zm5.86-189H900.4q31.61,0,44.43,3.08a52.19,52.19,0,0,1,21.68,10.63,55.44,55.44,0,0,1,16,21.59,71.43,71.43,0,0,1,5.37,24.72h-44.5v-.55c0-13-14.38-23.66-24.55-23.66H893.34v15.69H873.63Z" transform="translate(0 -435.1)"/><polygon class="cls-2" points="1110.18 121.94 1093.09 148.34 1078.7 170.56 1068.3 186.63 1043.49 224.96 1043.49 310.96 1093.2 310.96 1093.2 224.71 1159.3 121.94 1110.18 121.94"/><path class="cls-2" d="M1201.39,557l-65.22,189h51.25l9.83-33.84h73.2l9.56,33.84h51.26L1266,557Zm7,118.38,19-62.36c1.1-3.88,2.2-7.89,3.26-12.12s2.21-8.64,3.31-13.31c1.63,6.65,2.95,12.07,4,16.26s1.85,7.27,2.42,9.17l19.26,62.36Z" transform="translate(0 -435.1)"/><path class="cls-2" d="M1479.17,651.61q10.77-13.75,10.75-35.7a63,63,0,0,0-5.46-26.48,51.22,51.22,0,0,0-15.69-19.75,56.94,56.94,0,0,0-21.51-9.74c-8.28-1.94-23-2.91-44.07-2.91h-53.85v189h48.3v-74l43.37,74h58.21l-51.47-76.19Q1468.38,665.36,1479.17,651.61Zm-47.64-10.93q-7.66,5.69-24.33,5.69h-9.56V596.65H1408q16.93,0,24.07,6t7.18,20.22Q1439.2,635,1431.53,640.68Z" transform="translate(0 -435.1)"/><path class="cls-2" d="M1679.87,607.05A81.24,81.24,0,0,0,1652.64,575a90,90,0,0,0-32.09-13.79q-18.24-4.17-62.31-4.15h-39.36v189h48q36.88,0,54.47-4a89.76,89.76,0,0,0,31.25-13.62,81.24,81.24,0,0,0,27.23-32.08q9.33-19.57,9.3-44.65T1679.87,607.05Zm-57,84.18q-14,12.49-44.33,12.47h-8.64V599.25h8.64q30.35,0,44.33,12.65t13.93,39.75Q1636.77,678.83,1622.84,691.23Z" transform="translate(0 -435.1)"/><path class="cls-2" d="M988,565.86l-2.11-3.65,47.41-.07,2.12,3.66c7.34,12.68,16.1,27.72,23.44,40.4l-25.08,38.73Z" transform="translate(0 -435.1)"/><path class="cls-3" d="M1033.72,562.79,959.79,435.1l-47.27.07L986.3,562.84l47.42-.05ZM955.29,443.67l-14.14,24.57L927,443.71l28.34,0Zm52.17,90.11,14.49,25-28.92,0,14.43-25.05Zm-4.64-8-14.14,24.57-14.2-24.53,28.34,0Zm-19.12-33,14.48,25-28.91,0,14.43-25.06Zm-4.65-8-14.13,24.56-14.2-24.53,28.33,0Zm-19.12-33,14.49,25-28.92,0Z" transform="translate(0 -435.1)"/></g></svg>
