<svg id="Layer_1" data-name="Layer 1" xmlns="http://www.w3.org/2000/svg" xmlns:xlink="http://www.w3.org/1999/xlink" viewBox="0 0 352 227.5"><defs><style>.cls-1,.cls-3,.cls-4{fill:none;}.cls-2{clip-path:url(#clip-path);}.cls-3,.cls-4{stroke:#000;}.cls-3{stroke-linecap:round;stroke-linejoin:round;}.cls-4{stroke-miterlimit:10;}</style><clipPath id="clip-path" transform="translate(-0.5 -0.5)"><rect class="cls-1" width="353" height="228"/></clipPath></defs><g class="cls-2"><path class="cls-3" d="M1,72H352V227.5H1Zm0,0" transform="translate(-0.5 -0.5)"/></g><path d="M71.88,201.61v-1.92H85.59v1.92H79.88v15.22H77.6V201.61Zm17.88-1.92v15.22h9.08v1.92H87.48V199.69Zm21.39,16.93a7.93,7.93,0,0,1-3,.59,7.85,7.85,0,0,1-3.43-.71,7.66,7.66,0,0,1-2.57-1.9,8.29,8.29,0,0,1-1.61-2.76,9.59,9.59,0,0,1-.55-3.24,12.32,12.32,0,0,1,.51-3.57,8.87,8.87,0,0,1,1.54-3,7.44,7.44,0,0,1,2.54-2,8,8,0,0,1,3.57-.76,10.19,10.19,0,0,1,2.63.33,6.35,6.35,0,0,1,2.2,1,6,6,0,0,1,1.64,1.76,6.9,6.9,0,0,1,.9,2.58h-2.28a4.54,4.54,0,0,0-.63-1.69,3.91,3.91,0,0,0-1.13-1.16,4.69,4.69,0,0,0-1.52-.69,7.07,7.07,0,0,0-1.81-.23,5.39,5.39,0,0,0-2.68.63,5.32,5.32,0,0,0-1.82,1.64,7.39,7.39,0,0,0-1.05,2.33,10.87,10.87,0,0,0-.33,2.68,8.9,8.9,0,0,0,.38,2.58,6.74,6.74,0,0,0,1.13,2.18,5.51,5.51,0,0,0,1.84,1.51,5.36,5.36,0,0,0,2.53.57,6,6,0,0,0,2.37-.44,4.88,4.88,0,0,0,1.74-1.18,5,5,0,0,0,1.07-1.78,5.67,5.67,0,0,0,.31-2.2h-5.47V207.8h7.51v9h-1.44l-.6-2.14a5.63,5.63,0,0,1-2.49,1.93ZM127,208.07a3.47,3.47,0,0,0-.74-1.12,3.54,3.54,0,0,0-1.11-.74,3.37,3.37,0,0,0-1.4-.28,3.44,3.44,0,0,0-1.43.28,3.22,3.22,0,0,0-1.09.75,3.47,3.47,0,0,0-.72,1.12,4.09,4.09,0,0,0-.31,1.36h7.12a4.22,4.22,0,0,0-.32-1.37Zm.49,8a5.64,5.64,0,0,1-3.5,1.05,6.39,6.39,0,0,1-2.58-.48,5.18,5.18,0,0,1-1.84-1.34,5.73,5.73,0,0,1-1.11-2.07,9.77,9.77,0,0,1-.42-2.61,7.37,7.37,0,0,1,.43-2.59,6.1,6.1,0,0,1,1.21-2,5.49,5.49,0,0,1,1.85-1.35,5.63,5.63,0,0,1,2.34-.48,5.08,5.08,0,0,1,2.75.69,5.39,5.39,0,0,1,1.75,1.74,6.88,6.88,0,0,1,.91,2.3,9.38,9.38,0,0,1,.2,2.38H120.2a4.59,4.59,0,0,0,.19,1.54,3.47,3.47,0,0,0,.69,1.3,3.33,3.33,0,0,0,1.23.9,4.27,4.27,0,0,0,1.75.34,3.52,3.52,0,0,0,2.12-.6,2.9,2.9,0,0,0,1.1-1.83h2a5,5,0,0,1-1.8,3.15Zm6-11.62v2h0a4.29,4.29,0,0,1,4-2.26,5.31,5.31,0,0,1,2,.34,3.36,3.36,0,0,1,1.32.93,3.49,3.49,0,0,1,.7,1.43,7.5,7.5,0,0,1,.21,1.84v8.16h-2v-8.4a2.51,2.51,0,0,0-.67-1.83,2.54,2.54,0,0,0-1.85-.67,4.15,4.15,0,0,0-1.62.29,2.88,2.88,0,0,0-1.14.82,3.38,3.38,0,0,0-.69,1.23,5.09,5.09,0,0,0-.22,1.55v7h-2V204.42Zm19.71,3.65a3.47,3.47,0,0,0-.74-1.12,3.43,3.43,0,0,0-1.11-.74,3.37,3.37,0,0,0-1.4-.28,3.44,3.44,0,0,0-1.43.28,3.22,3.22,0,0,0-1.09.75,3.47,3.47,0,0,0-.72,1.12,4.09,4.09,0,0,0-.31,1.36h7.13a4.51,4.51,0,0,0-.33-1.37Zm.49,8a5.64,5.64,0,0,1-3.5,1.05,6.39,6.39,0,0,1-2.58-.48,5.18,5.18,0,0,1-1.84-1.34,5.73,5.73,0,0,1-1.11-2.07,9.77,9.77,0,0,1-.42-2.61,7.37,7.37,0,0,1,.43-2.59,6.1,6.1,0,0,1,1.21-2,5.49,5.49,0,0,1,1.85-1.35,5.63,5.63,0,0,1,2.34-.48,5.08,5.08,0,0,1,2.75.69,5.39,5.39,0,0,1,1.75,1.74,6.88,6.88,0,0,1,.91,2.3,9.88,9.88,0,0,1,.21,2.38h-9.29a4.86,4.86,0,0,0,.19,1.54,3.35,3.35,0,0,0,.7,1.3,3.21,3.21,0,0,0,1.22.9,4.27,4.27,0,0,0,1.75.34,3.55,3.55,0,0,0,2.13-.6,2.93,2.93,0,0,0,1.09-1.83h2a5,5,0,0,1-1.8,3.15Zm5.95-11.62V207h.05a5.58,5.58,0,0,1,1.83-2.24,4.59,4.59,0,0,1,2.73-.67v2.16a5.69,5.69,0,0,0-2.09.34,3.28,3.28,0,0,0-1.39,1,4.12,4.12,0,0,0-.77,1.57,8.56,8.56,0,0,0-.24,2.13v5.52h-2V204.42Zm6.27-2.23v-2.5h2v2.5Zm2,2.23v12.41h-2V204.42Zm10.58,2.16a3.1,3.1,0,0,0-2.06-.65,3.83,3.83,0,0,0-1.85.41,3.27,3.27,0,0,0-1.19,1.08,4.47,4.47,0,0,0-.63,1.55,8.3,8.3,0,0,0-.2,1.81,6.67,6.67,0,0,0,.21,1.68,4.53,4.53,0,0,0,.63,1.45,3.17,3.17,0,0,0,1.13,1,3.37,3.37,0,0,0,1.66.39,3.32,3.32,0,0,0,2.36-.8,3.56,3.56,0,0,0,1-2.23h2.08a5.67,5.67,0,0,1-1.71,3.55,5.35,5.35,0,0,1-3.76,1.25,6.57,6.57,0,0,1-2.51-.45,5,5,0,0,1-1.82-1.3,5.48,5.48,0,0,1-1.1-2,8.33,8.33,0,0,1-.38-2.56,9,9,0,0,1,.36-2.6,6,6,0,0,1,1.1-2.12,5,5,0,0,1,1.83-1.41,5.93,5.93,0,0,1,2.57-.52,7.89,7.89,0,0,1,2,.25,4.83,4.83,0,0,1,1.63.78,4.46,4.46,0,0,1,1.17,1.34,4.93,4.93,0,0,1,.57,1.9h-2.11a3.12,3.12,0,0,0-1-1.82Zm17.07-6.89v1.92h-9v5.45h7.87V209h-7.87v7.85h-2.28V199.69Zm4.89,0v17.14h-2.28V199.69Zm11.91,0a5.62,5.62,0,0,1,3.82,1.2,4.14,4.14,0,0,1,1.38,3.29,5.25,5.25,0,0,1-.7,2.74,3.65,3.65,0,0,1-2.27,1.6v0a3.19,3.19,0,0,1,1.21.48,2.59,2.59,0,0,1,.74.81,3.53,3.53,0,0,1,.41,1,10.69,10.69,0,0,1,.21,1.2c0,.42.05.84.07,1.27a8.81,8.81,0,0,0,.12,1.27,7.14,7.14,0,0,0,.27,1.19,2.93,2.93,0,0,0,.54,1h-2.54a1.41,1.41,0,0,1-.32-.72,6.25,6.25,0,0,1-.11-1c0-.38,0-.78,0-1.21a9,9,0,0,0-.14-1.28c-.07-.41-.15-.81-.24-1.18a2.82,2.82,0,0,0-.46-1,2.26,2.26,0,0,0-.82-.67,3,3,0,0,0-1.34-.25h-5.57v7.32h-2.28V199.69Zm.48,7.78a3.33,3.33,0,0,0,1.26-.47,2.52,2.52,0,0,0,.86-.94,3.57,3.57,0,0,0-.4-3.63,2.92,2.92,0,0,0-2.32-.82h-5.67v6h4.75a9.27,9.27,0,0,0,1.52-.12Zm18.25-5.35a5.29,5.29,0,0,0-3.11-.92,5.64,5.64,0,0,0-2.63.58,5.1,5.1,0,0,0-1.8,1.55,6.67,6.67,0,0,0-1,2.22,9.63,9.63,0,0,0-.34,2.59,10.78,10.78,0,0,0,.34,2.77,6.62,6.62,0,0,0,1,2.28,5.13,5.13,0,0,0,1.81,1.55,5.71,5.71,0,0,0,2.64.58,5.07,5.07,0,0,0,2-.38,4.41,4.41,0,0,0,1.51-1,4.79,4.79,0,0,0,1-1.57,6.58,6.58,0,0,0,.43-2h2.28a7.83,7.83,0,0,1-2.23,5,7.25,7.25,0,0,1-5.19,1.8,8.34,8.34,0,0,1-3.48-.68,6.94,6.94,0,0,1-2.47-1.89,8,8,0,0,1-1.48-2.83,12.33,12.33,0,0,1-.49-3.5,11.53,11.53,0,0,1,.53-3.52,8.55,8.55,0,0,1,1.55-2.87,7.3,7.3,0,0,1,2.54-1.93,8.24,8.24,0,0,1,3.49-.71,8.83,8.83,0,0,1,2.55.36,6.86,6.86,0,0,1,2.13,1.06,5.68,5.68,0,0,1,1.56,1.74,6.37,6.37,0,0,1,.82,2.41h-2.28a4.24,4.24,0,0,0-1.69-2.73Zm8.67-2.43v6.55h0a2.76,2.76,0,0,1,.67-1,4,4,0,0,1,1-.65,5.54,5.54,0,0,1,1.13-.37,5.67,5.67,0,0,1,1.14-.12,5.24,5.24,0,0,1,2,.34,3.22,3.22,0,0,1,1.32.93,3.5,3.5,0,0,1,.71,1.43,7.5,7.5,0,0,1,.21,1.84v8.16h-2v-8.4a2.47,2.47,0,0,0-.67-1.83,2.53,2.53,0,0,0-1.85-.67,4.22,4.22,0,0,0-1.62.29,3,3,0,0,0-1.14.82,3.51,3.51,0,0,0-.68,1.23,5.09,5.09,0,0,0-.23,1.55v7h-2V199.69Zm22.3,15.48a2,2,0,0,1-.62.12c-.33,0-.51-.11-.57-.33a4.66,4.66,0,0,1-.08-1.06v-6.37a3.36,3.36,0,0,0-.41-1.75,2.91,2.91,0,0,0-1.08-1,4.56,4.56,0,0,0-1.5-.49,11.62,11.62,0,0,0-1.67-.12,8.4,8.4,0,0,0-2,.22,4.67,4.67,0,0,0-1.64.71,3.58,3.58,0,0,0-1.16,1.28,4.66,4.66,0,0,0-.48,1.94h2a2.09,2.09,0,0,1,.94-1.86,4.42,4.42,0,0,1,2.16-.49,8.05,8.05,0,0,1,1,.07,2.74,2.74,0,0,1,.89.29,1.78,1.78,0,0,1,.65.63,2,2,0,0,1,.25,1.08,1.12,1.12,0,0,1-.33.87,2.34,2.34,0,0,1-.92.46,10,10,0,0,1-1.33.24c-.5.05-1,.14-1.6.25s-1,.22-1.54.36a4.21,4.21,0,0,0-1.35.64,3.14,3.14,0,0,0-1,1.09,3.64,3.64,0,0,0-.36,1.73,3.52,3.52,0,0,0,.33,1.59,2.88,2.88,0,0,0,.87,1.07,3.84,3.84,0,0,0,1.31.6,6.43,6.43,0,0,0,1.6.19,6.57,6.57,0,0,0,2.41-.44,5,5,0,0,0,2-1.45,1.94,1.94,0,0,0,.46,1.45,1.81,1.81,0,0,0,1.26.44,2.87,2.87,0,0,0,1.47-.31v-1.61Zm-3.31-2.69a2.41,2.41,0,0,1-.22.93,2.71,2.71,0,0,1-.67.91,3.84,3.84,0,0,1-1.18.7,4.91,4.91,0,0,1-1.73.27,4.46,4.46,0,0,1-.91-.09,2.13,2.13,0,0,1-.75-.32,1.58,1.58,0,0,1-.53-.56,1.62,1.62,0,0,1-.21-.85,1.91,1.91,0,0,1,.35-1.21,2.22,2.22,0,0,1,.9-.69,5.56,5.56,0,0,1,1.25-.35l1.38-.19c.46-.05.89-.13,1.31-.21a2.68,2.68,0,0,0,1-.42v2.08Zm5.32-10.29v-2.5h2v2.5Zm2,2.23v12.41h-2V204.42Zm5.09,0v2h.05a4.29,4.29,0,0,1,4-2.26,5.24,5.24,0,0,1,2,.34,3.22,3.22,0,0,1,1.32.93,3.5,3.5,0,0,1,.71,1.43,7.52,7.52,0,0,1,.2,1.84v8.16h-2v-8.4a2.47,2.47,0,0,0-.67-1.83,2.53,2.53,0,0,0-1.85-.67,4.22,4.22,0,0,0-1.62.29,3,3,0,0,0-1.14.82,3.51,3.51,0,0,0-.68,1.23,5.09,5.09,0,0,0-.23,1.55v7h-2V204.42Z" transform="translate(-0.5 -0.5)"/><g class="cls-2"><path class="cls-3" d="M1,1H352V36.5H1ZM1,1" transform="translate(-0.5 -0.5)"/></g><path d="M109.78,18.49a4.05,4.05,0,0,0,2.84-.8,3,3,0,0,0,.9-2.35,3,3,0,0,0-.9-2.34,4.21,4.21,0,0,0-2.84-.8h-4.46v6.29Zm.77-8.21a5.3,5.3,0,0,1,3.92,1.33,5,5,0,0,1,1.33,3.73,5.1,5.1,0,0,1-1.33,3.75,5.26,5.26,0,0,1-3.92,1.32h-5.23v7H103V10.28Zm16,8.37a3.43,3.43,0,0,0-.74-1.11,3.7,3.7,0,0,0-1.1-.75,3.87,3.87,0,0,0-2.84,0,3.5,3.5,0,0,0-1.09.76,3.71,3.71,0,0,0-.72,1.12,4.29,4.29,0,0,0-.31,1.35h7.13a4,4,0,0,0-.33-1.37Zm.5,8a5.61,5.61,0,0,1-3.51,1.06A6.39,6.39,0,0,1,121,27.2a5,5,0,0,1-1.83-1.35A5.62,5.62,0,0,1,118,23.79a9.77,9.77,0,0,1-.42-2.62,7.45,7.45,0,0,1,.43-2.59,6.31,6.31,0,0,1,1.21-2,5.55,5.55,0,0,1,4.19-1.82,5.14,5.14,0,0,1,2.75.68,5.49,5.49,0,0,1,1.75,1.74,6.73,6.73,0,0,1,.91,2.31,9.85,9.85,0,0,1,.21,2.37h-9.29a4.92,4.92,0,0,0,.19,1.55,3.42,3.42,0,0,0,1.92,2.2,4.3,4.3,0,0,0,1.75.33,3.53,3.53,0,0,0,2.13-.6,2.93,2.93,0,0,0,1.09-1.82h2a5,5,0,0,1-1.8,3.14ZM133,15v2.61h0a5.45,5.45,0,0,1,1.82-2.23,4.6,4.6,0,0,1,2.74-.67v2.16a5.84,5.84,0,0,0-2.09.33,3.33,3.33,0,0,0-1.39,1,3.92,3.92,0,0,0-.77,1.57,8.47,8.47,0,0,0-.24,2.12v5.52h-2V15Zm6.26-2.24V10.28h2v2.49Zm2,2.24v12.4h-2V15Zm5.28,0v1.68h.05a3,3,0,0,1,1.58-1.5,5.78,5.78,0,0,1,2.38-.47,5.52,5.52,0,0,1,2.51.53,5,5,0,0,1,1.77,1.42,6.41,6.41,0,0,1,1.07,2.08,8.49,8.49,0,0,1,.36,2.5,8.76,8.76,0,0,1-.35,2.49,5.77,5.77,0,0,1-1.05,2.05,5,5,0,0,1-1.78,1.38,5.69,5.69,0,0,1-2.48.51,5.49,5.49,0,0,1-1-.1,5.66,5.66,0,0,1-1.12-.31,4,4,0,0,1-1-.59,3.19,3.19,0,0,1-.83-.92h-.05v6.38h-2V15Zm7.33,4.4a4.68,4.68,0,0,0-.69-1.48,3.52,3.52,0,0,0-1.2-1,3.73,3.73,0,0,0-1.72-.38,3.41,3.41,0,0,0-1.75.41A3.54,3.54,0,0,0,147.36,18a4.63,4.63,0,0,0-.66,1.5,7.54,7.54,0,0,0-.2,1.71,7.31,7.31,0,0,0,.21,1.76,4.49,4.49,0,0,0,.69,1.5,3.53,3.53,0,0,0,1.21,1.05,3.86,3.86,0,0,0,1.8.39,3.46,3.46,0,0,0,1.77-.41,3.28,3.28,0,0,0,1.14-1.08,4.87,4.87,0,0,0,.62-1.53,8.09,8.09,0,0,0,.19-1.78,6.44,6.44,0,0,0-.23-1.69Zm6.83-9.13v6.55h.05a2.68,2.68,0,0,1,.67-1,3.75,3.75,0,0,1,1-.65,5,5,0,0,1,1.13-.37,5.67,5.67,0,0,1,1.14-.12,5.44,5.44,0,0,1,2,.33,3.31,3.31,0,0,1,2,2.37,8,8,0,0,1,.2,1.83v8.16h-2V19a2.46,2.46,0,0,0-.67-1.82,2.49,2.49,0,0,0-1.85-.67,4,4,0,0,0-1.62.29,3.12,3.12,0,0,0-1.14.81,3.56,3.56,0,0,0-.68,1.24,5.09,5.09,0,0,0-.23,1.55v7h-2V10.28Zm19.6,8.37a3.62,3.62,0,0,0-.75-1.11,3.7,3.7,0,0,0-1.1-.75,3.84,3.84,0,0,0-2.83,0,3.43,3.43,0,0,0-1.1.76,3.71,3.71,0,0,0-.72,1.12,4.29,4.29,0,0,0-.31,1.35h7.13a4.28,4.28,0,0,0-.32-1.37Zm.49,8a5.61,5.61,0,0,1-3.51,1.06,6.39,6.39,0,0,1-2.58-.48,5,5,0,0,1-1.83-1.35,5.62,5.62,0,0,1-1.12-2.06,9.77,9.77,0,0,1-.42-2.62,7.69,7.69,0,0,1,.43-2.59,6.33,6.33,0,0,1,1.22-2,5.56,5.56,0,0,1,1.84-1.34,5.7,5.7,0,0,1,2.34-.48,5.14,5.14,0,0,1,2.75.68,5.49,5.49,0,0,1,1.75,1.74,7,7,0,0,1,.92,2.31,10.35,10.35,0,0,1,.2,2.37h-9.29a5.23,5.23,0,0,0,.19,1.55,3.42,3.42,0,0,0,1.92,2.2,4.32,4.32,0,0,0,1.76.33,3.52,3.52,0,0,0,2.12-.6,2.89,2.89,0,0,0,1.09-1.82h2a4.93,4.93,0,0,1-1.8,3.14Zm6-11.61v2.61h0a5.45,5.45,0,0,1,1.82-2.23,4.6,4.6,0,0,1,2.74-.67v2.16a5.88,5.88,0,0,0-2.09.33,3.33,3.33,0,0,0-1.39,1,4.05,4.05,0,0,0-.77,1.57,8.47,8.47,0,0,0-.24,2.12v5.52h-2V15Zm16.42,0H201l-3.48,10.15h-.05L193.87,15h-2.3l4.92,12.33-.84,2.09a1.8,1.8,0,0,1-.64.85,1.73,1.73,0,0,1-1,.3,2.92,2.92,0,0,1-.59-.08,3.94,3.94,0,0,1-.61-.21v1.88a3.24,3.24,0,0,0,.7.16,4.36,4.36,0,0,0,.72.05,3.57,3.57,0,0,0,1.18-.18,2.61,2.61,0,0,0,.94-.57,4.39,4.39,0,0,0,.77-1,13.53,13.53,0,0,0,.71-1.54L203.19,15Zm15.57,2.64a4.48,4.48,0,0,0,2.8-.69,2.46,2.46,0,0,0,.85-2.05,3,3,0,0,0-.29-1.44,2.08,2.08,0,0,0-.79-.82,3.23,3.23,0,0,0-1.16-.37,12.47,12.47,0,0,0-1.41-.08H214.2v5.45Zm-.62-7.37h1.19c.42,0,.84,0,1.26.07a9.73,9.73,0,0,1,1.16.18,2.85,2.85,0,0,1,.92.36,4.51,4.51,0,0,1,1.43,1.39,3.91,3.91,0,0,1,.59,2.19,4.16,4.16,0,0,1-.66,2.36,3.88,3.88,0,0,1-1.88,1.48v.05a3.91,3.91,0,0,1,2.42,1.44,4.29,4.29,0,0,1,.84,2.68,5,5,0,0,1-.34,1.83,4.54,4.54,0,0,1-1,1.57,5,5,0,0,1-1.63,1.1,5.64,5.64,0,0,1-2.25.42h-8.28V10.28Zm1.77,15.21a3.31,3.31,0,0,0,2.37-.81,3,3,0,0,0,.85-2.26,2.78,2.78,0,0,0-.31-1.39,2.51,2.51,0,0,0-.83-.88,3.59,3.59,0,0,0-1.19-.45,7,7,0,0,0-1.39-.13H214.2v5.92Zm16.47,1.92v-2h0a4.16,4.16,0,0,1-1.66,1.69,4.94,4.94,0,0,1-2.37.54,5.44,5.44,0,0,1-2-.33,3.11,3.11,0,0,1-1.32-.92,3.5,3.5,0,0,1-.71-1.43,7.44,7.44,0,0,1-.2-1.83V15h2v8.4a2.46,2.46,0,0,0,.67,1.82,2.49,2.49,0,0,0,1.85.67,4,4,0,0,0,1.62-.29,3.12,3.12,0,0,0,1.14-.81,3.56,3.56,0,0,0,.68-1.24,5.09,5.09,0,0,0,.23-1.55V15h2v12.4Zm6.55-2.77a2.18,2.18,0,0,0,.76.75,3.46,3.46,0,0,0,1.05.39,6.06,6.06,0,0,0,1.21.12,7.15,7.15,0,0,0,1-.07,4.06,4.06,0,0,0,1-.26,1.89,1.89,0,0,0,.74-.57,1.51,1.51,0,0,0,.28-.95,1.38,1.38,0,0,0-.6-1.2,5.21,5.21,0,0,0-1.5-.66c-.6-.16-1.25-.32-1.95-.45a10.21,10.21,0,0,1-2-.58,4,4,0,0,1-1.5-1,2.71,2.71,0,0,1-.6-1.87,3,3,0,0,1,.42-1.61,3.41,3.41,0,0,1,1.08-1.09,5.11,5.11,0,0,1,1.49-.63,7.14,7.14,0,0,1,1.64-.2,9.8,9.8,0,0,1,1.95.18,4.65,4.65,0,0,1,1.57.62,3.24,3.24,0,0,1,1.09,1.2,4.64,4.64,0,0,1,.48,1.89h-2a2,2,0,0,0-.31-1,2.15,2.15,0,0,0-.67-.64,3,3,0,0,0-.9-.34,4.2,4.2,0,0,0-1-.11,5.79,5.79,0,0,0-.92.07,3.12,3.12,0,0,0-.85.25,1.7,1.7,0,0,0-.63.48,1.21,1.21,0,0,0-.24.78,1.18,1.18,0,0,0,.37.88,3,3,0,0,0,.95.57,8.33,8.33,0,0,0,1.3.39l1.44.32a15.07,15.07,0,0,1,1.5.41,4.58,4.58,0,0,1,1.29.64,3.11,3.11,0,0,1,.92,1,3,3,0,0,1,.34,1.49,3.46,3.46,0,0,1-.46,1.87,3.62,3.62,0,0,1-1.23,1.2,5,5,0,0,1-1.7.64,10.08,10.08,0,0,1-1.89.18,8.35,8.35,0,0,1-2-.22,4.69,4.69,0,0,1-1.66-.71,3.59,3.59,0,0,1-1.15-1.29,4.46,4.46,0,0,1-.48-2h2a2.24,2.24,0,0,0,.31,1.14Z" transform="translate(-0.5 -0.5)"/><path class="cls-3" d="M25.75,141h70.5v35.5H25.75Zm0,0" transform="translate(-0.5 -0.5)"/><polygon points="51.96 154.76 49.36 145.16 49.32 145.16 46.68 154.76 45.1 154.76 42.17 143.34 43.72 143.34 45.96 152.84 46 152.84 48.56 143.34 50.2 143.34 52.73 152.84 52.76 152.84 55.08 143.34 56.6 143.34 53.55 154.76 51.96 154.76 51.96 154.76"/><path d="M59.26,147v1.74h0a3.65,3.65,0,0,1,1.21-1.48,3.08,3.08,0,0,1,1.83-.45v1.44a3.88,3.88,0,0,0-1.4.22,2.16,2.16,0,0,0-.92.66,2.73,2.73,0,0,0-.52,1,6,6,0,0,0-.16,1.41v3.68H58V147Zm4.18-1.49v-1.66H64.8v1.66ZM64.8,147v8.27H63.44V147Zm5.65,0v1.2H68.8v5.14a1.34,1.34,0,0,0,0,.38.4.4,0,0,0,.15.22.67.67,0,0,0,.31.11l.52,0h.63v1.2h-1a4.81,4.81,0,0,1-.91-.07,1.38,1.38,0,0,1-.6-.26,1.14,1.14,0,0,1-.35-.55,3.28,3.28,0,0,1-.11-.93v-5.26H66V147h1.41v-2.48H68.8V147Zm7,2.43a2.25,2.25,0,0,0-.5-.74,2.21,2.21,0,0,0-.73-.5,2.57,2.57,0,0,0-1.89,0,2.09,2.09,0,0,0-.73.51,2.48,2.48,0,0,0-.48.74,2.69,2.69,0,0,0-.21.9H77.7a3.11,3.11,0,0,0-.22-.91Zm.33,5.31a3.77,3.77,0,0,1-2.34.71,4.33,4.33,0,0,1-1.72-.32,3.43,3.43,0,0,1-1.22-.9,3.87,3.87,0,0,1-.75-1.37,6.89,6.89,0,0,1-.28-1.75,5.06,5.06,0,0,1,.29-1.73A4.13,4.13,0,0,1,72.6,148a3.73,3.73,0,0,1,1.23-.89,3.69,3.69,0,0,1,1.56-.32,3.4,3.4,0,0,1,1.83.45,3.6,3.6,0,0,1,1.17,1.16A4.68,4.68,0,0,1,79,150a6.72,6.72,0,0,1,.14,1.58h-6.2a3.53,3.53,0,0,0,.13,1,2.33,2.33,0,0,0,.47.86,2.26,2.26,0,0,0,.81.6,2.81,2.81,0,0,0,1.17.22,2.34,2.34,0,0,0,1.42-.4,1.91,1.91,0,0,0,.72-1.21H79a3.28,3.28,0,0,1-1.2,2.09Z" transform="translate(-0.5 -0.5)"/><path d="M46.15,171.66a4,4,0,0,0,1-1.64,6.19,6.19,0,0,0,.32-2,6.58,6.58,0,0,0-.22-1.71,4.64,4.64,0,0,0-.7-1.51,3.51,3.51,0,0,0-1.24-1.08,4.11,4.11,0,0,0-3.58,0,3.56,3.56,0,0,0-1.23,1.08,4.66,4.66,0,0,0-.71,1.51,6.72,6.72,0,0,0,0,3.41,4.57,4.57,0,0,0,.71,1.51,3.56,3.56,0,0,0,1.23,1.08,3.61,3.61,0,0,0,1.79.41,4,4,0,0,0,1.59-.32l-1.27-1,.8-.92,1.52,1.21Zm.1,1.63a5.33,5.33,0,0,1-2.74.68,5.56,5.56,0,0,1-2.38-.49,5,5,0,0,1-1.71-1.32,5.71,5.71,0,0,1-1-1.91,7.61,7.61,0,0,1,0-4.5,5.62,5.62,0,0,1,1-1.91,4.91,4.91,0,0,1,1.71-1.33,5.94,5.94,0,0,1,4.77,0,5,5,0,0,1,1.71,1.33,5.6,5.6,0,0,1,1,1.91A7.35,7.35,0,0,1,49,168a7.16,7.16,0,0,1-.43,2.49,5.59,5.59,0,0,1-1.29,2l1.5,1.19-.77,1-1.74-1.4Zm9.93.42V172.4h0a2.79,2.79,0,0,1-1.1,1.13,3.33,3.33,0,0,1-1.59.36,3.83,3.83,0,0,1-1.36-.22,2.17,2.17,0,0,1-.88-.62,2.29,2.29,0,0,1-.47-1,5.13,5.13,0,0,1-.13-1.22v-5.44H52V171a1.65,1.65,0,0,0,.44,1.21,1.67,1.67,0,0,0,1.24.45,2.78,2.78,0,0,0,1.08-.19,2.19,2.19,0,0,0,.76-.54,2.38,2.38,0,0,0,.45-.83,3.37,3.37,0,0,0,.15-1v-4.67h1.36v8.27ZM65,167.87a2.15,2.15,0,0,0-.5-.74,2.21,2.21,0,0,0-.73-.5,2.57,2.57,0,0,0-1.89,0,2.21,2.21,0,0,0-.73.5,2.67,2.67,0,0,0-.48.75,3,3,0,0,0-.21.9h4.76a3.11,3.11,0,0,0-.22-.91Zm.33,5.31a3.77,3.77,0,0,1-2.34.71,4.33,4.33,0,0,1-1.72-.32,3.56,3.56,0,0,1-1.22-.9,3.83,3.83,0,0,1-.75-1.38,7.2,7.2,0,0,1-.28-1.74,5,5,0,0,1,.29-1.73,4.13,4.13,0,0,1,.81-1.36,3.73,3.73,0,0,1,1.23-.89,3.69,3.69,0,0,1,1.56-.32,3.4,3.4,0,0,1,1.83.45A3.6,3.6,0,0,1,66,166.86a4.4,4.4,0,0,1,.61,1.54A6.72,6.72,0,0,1,66.7,170H60.5a3.47,3.47,0,0,0,.13,1,2.3,2.3,0,0,0,.47.87,2.26,2.26,0,0,0,.81.6,2.81,2.81,0,0,0,1.17.22,2.34,2.34,0,0,0,1.42-.4,1.91,1.91,0,0,0,.72-1.21h1.35a3.3,3.3,0,0,1-1.2,2.09Zm8.3.53V172.4h0a2.85,2.85,0,0,1-1.1,1.13,3.33,3.33,0,0,1-1.59.36,3.79,3.79,0,0,1-1.36-.22,2.17,2.17,0,0,1-.88-.62,2.29,2.29,0,0,1-.47-1,5.11,5.11,0,0,1-.14-1.22v-5.44h1.36V171a1.61,1.61,0,0,0,.45,1.21,1.66,1.66,0,0,0,1.23.45,2.71,2.71,0,0,0,1.08-.19A2,2,0,0,0,73,172a2.25,2.25,0,0,0,.46-.83,3.37,3.37,0,0,0,.15-1v-4.67H75v8.27Zm8.86-5.84a2.38,2.38,0,0,0-1.23-1.24,2.57,2.57,0,0,0-1.89,0,2.11,2.11,0,0,0-.73.5,2.68,2.68,0,0,0-.69,1.65h4.75a2.81,2.81,0,0,0-.21-.91Zm.33,5.31a3.77,3.77,0,0,1-2.34.71,4.29,4.29,0,0,1-1.72-.32,3.47,3.47,0,0,1-1.22-.9,3.68,3.68,0,0,1-.75-1.38,6.74,6.74,0,0,1-.28-1.74,5,5,0,0,1,.29-1.73,4.13,4.13,0,0,1,.81-1.36,3.54,3.54,0,0,1,1.23-.89,3.63,3.63,0,0,1,1.56-.32,3.4,3.4,0,0,1,1.83.45,3.6,3.6,0,0,1,1.17,1.16,4.6,4.6,0,0,1,.61,1.54,6.7,6.7,0,0,1,.13,1.58H78a3.17,3.17,0,0,0,.13,1,2.42,2.42,0,0,0,.46.87,2.39,2.39,0,0,0,.82.6,2.81,2.81,0,0,0,1.17.22,2.31,2.31,0,0,0,1.41-.4,1.92,1.92,0,0,0,.73-1.21h1.35a3.39,3.39,0,0,1-1.2,2.09Z" transform="translate(-0.5 -0.5)"/><path class="cls-3" d="M256.75,141h70.5v35.5h-70.5Zm0,0" transform="translate(-0.5 -0.5)"/><path d="M279.81,143.84a3.71,3.71,0,0,1,2.55.8,2.75,2.75,0,0,1,.92,2.19,3.5,3.5,0,0,1-.47,1.82,2.46,2.46,0,0,1-1.51,1.08v0a1.89,1.89,0,0,1,.8.32,1.79,1.79,0,0,1,.5.53,2.55,2.55,0,0,1,.27.7,6.67,6.67,0,0,1,.14.8c0,.28,0,.56.05.85a6,6,0,0,0,.08.85,5,5,0,0,0,.18.79,1.92,1.92,0,0,0,.36.66H282a1.06,1.06,0,0,1-.21-.48,4.45,4.45,0,0,1-.07-.68c0-.25,0-.52,0-.81a5.83,5.83,0,0,0-.09-.84c0-.28-.1-.55-.16-.8a1.87,1.87,0,0,0-.31-.65,1.41,1.41,0,0,0-.54-.45,2,2,0,0,0-.9-.17H276v4.88h-1.52V143.84Zm.32,5.18a2.22,2.22,0,0,0,.84-.31,1.62,1.62,0,0,0,.57-.62,2.37,2.37,0,0,0-.26-2.43,2,2,0,0,0-1.55-.54H276v4h3.17a5.51,5.51,0,0,0,1-.08Zm10.57.4a2.41,2.41,0,0,0-.5-.74,2.25,2.25,0,0,0-.74-.5,2.34,2.34,0,0,0-.93-.18,2.4,2.4,0,0,0-.95.18,2,2,0,0,0-.73.51,2.48,2.48,0,0,0-.48.74,2.69,2.69,0,0,0-.21.9h4.75a2.81,2.81,0,0,0-.21-.91Zm.32,5.31a3.72,3.72,0,0,1-2.33.71,4.29,4.29,0,0,1-1.72-.32,3.38,3.38,0,0,1-1.23-.9,3.85,3.85,0,0,1-.74-1.37,6.47,6.47,0,0,1-.28-1.75,5.06,5.06,0,0,1,.29-1.73,4.13,4.13,0,0,1,.81-1.36,3.54,3.54,0,0,1,1.23-.89,3.63,3.63,0,0,1,1.56-.32,3.45,3.45,0,0,1,1.83.45,3.7,3.7,0,0,1,1.17,1.16,4.91,4.91,0,0,1,.61,1.54,6.7,6.7,0,0,1,.13,1.58h-6.19a3.23,3.23,0,0,0,.13,1,2.31,2.31,0,0,0,.46.86,2.39,2.39,0,0,0,.82.6,2.81,2.81,0,0,0,1.17.22,2.33,2.33,0,0,0,1.41-.4,1.92,1.92,0,0,0,.73-1.21h1.34a3.28,3.28,0,0,1-1.2,2.09Zm10.07-.57a1.46,1.46,0,0,1-.42.08c-.21,0-.34-.08-.37-.23a2.89,2.89,0,0,1-.06-.7v-4.25a2.24,2.24,0,0,0-.27-1.16,1.84,1.84,0,0,0-.72-.69,2.74,2.74,0,0,0-1-.33,6.91,6.91,0,0,0-1.11-.08,6.14,6.14,0,0,0-1.32.14,3.42,3.42,0,0,0-1.1.47,2.45,2.45,0,0,0-.77.86,2.93,2.93,0,0,0-.32,1.3H295a1.37,1.37,0,0,1,.63-1.24,2.84,2.84,0,0,1,1.44-.33,3.52,3.52,0,0,1,.64.05,1.69,1.69,0,0,1,.6.19,1.12,1.12,0,0,1,.43.41,1.42,1.42,0,0,1,.17.72.76.76,0,0,1-.23.59,1.51,1.51,0,0,1-.61.3,6.07,6.07,0,0,1-.88.16c-.34,0-.7.1-1.07.17a9.05,9.05,0,0,0-1,.24,3.24,3.24,0,0,0-.9.42,2.13,2.13,0,0,0-.63.73,2.42,2.42,0,0,0-.24,1.15,2.35,2.35,0,0,0,.22,1.07,1.93,1.93,0,0,0,.58.71,2.67,2.67,0,0,0,.87.4,4.13,4.13,0,0,0,1.07.13,4.31,4.31,0,0,0,1.61-.3,3.27,3.27,0,0,0,1.3-1,1.28,1.28,0,0,0,.31,1,1.17,1.17,0,0,0,.84.3,1.93,1.93,0,0,0,1-.21v-1.07Zm-2.21-1.79a1.62,1.62,0,0,1-.14.61,2,2,0,0,1-.45.61,2.42,2.42,0,0,1-.79.46,3,3,0,0,1-1.15.19,2.48,2.48,0,0,1-.61-.07,1.5,1.5,0,0,1-.5-.2,1.27,1.27,0,0,1-.35-.38,1.09,1.09,0,0,1-.14-.57,1.32,1.32,0,0,1,.23-.81,1.58,1.58,0,0,1,.6-.45,3,3,0,0,1,.84-.23l.92-.13q.45-.06.87-.15a1.58,1.58,0,0,0,.67-.28v1.4Zm4.62,0a3,3,0,0,0,.46,1,2.23,2.23,0,0,0,.8.69,2.43,2.43,0,0,0,1.14.25,2.35,2.35,0,0,0,1.17-.27,2.45,2.45,0,0,0,.79-.71,3.24,3.24,0,0,0,.44-1,4.8,4.8,0,0,0,.13-1.14,5.06,5.06,0,0,0-.14-1.17,3,3,0,0,0-.46-1,2.39,2.39,0,0,0-.81-.7,2.59,2.59,0,0,0-1.2-.26,2.31,2.31,0,0,0-1.16.27,2.13,2.13,0,0,0-.77.72,3.32,3.32,0,0,0-.42,1,5.86,5.86,0,0,0-.13,1.19,4,4,0,0,0,.16,1.13Zm4.88,2.93v-1.12h0a2,2,0,0,1-1.05,1,3.92,3.92,0,0,1-1.59.31,3.77,3.77,0,0,1-1.67-.35,3.35,3.35,0,0,1-1.18-1,4,4,0,0,1-.72-1.37,5.71,5.71,0,0,1-.24-1.67,5.65,5.65,0,0,1,.24-1.66,3.79,3.79,0,0,1,.7-1.37,3.39,3.39,0,0,1,1.18-.93,3.79,3.79,0,0,1,1.66-.34,4.39,4.39,0,0,1,.69.06,3.38,3.38,0,0,1,.73.22,2.88,2.88,0,0,1,.7.4,2.15,2.15,0,0,1,.55.61h0v-4.25h1.36v11.42Z" transform="translate(-0.5 -0.5)"/><path d="M277.15,171.66a4,4,0,0,0,1-1.64,6.19,6.19,0,0,0,.32-2,6.58,6.58,0,0,0-.22-1.71,4.64,4.64,0,0,0-.7-1.51,3.51,3.51,0,0,0-1.24-1.08,4.11,4.11,0,0,0-3.58,0,3.56,3.56,0,0,0-1.23,1.08,4.66,4.66,0,0,0-.71,1.51,6.72,6.72,0,0,0,0,3.41,4.57,4.57,0,0,0,.71,1.51,3.56,3.56,0,0,0,1.23,1.08,3.61,3.61,0,0,0,1.79.41,4,4,0,0,0,1.59-.32l-1.27-1,.8-.92,1.52,1.21Zm.1,1.63a5.33,5.33,0,0,1-2.74.68,5.56,5.56,0,0,1-2.38-.49,5,5,0,0,1-1.71-1.32,5.71,5.71,0,0,1-1-1.91,7.61,7.61,0,0,1,0-4.5,5.62,5.62,0,0,1,1-1.91,4.91,4.91,0,0,1,1.71-1.33,5.94,5.94,0,0,1,4.77,0,5,5,0,0,1,1.71,1.33,5.6,5.6,0,0,1,1,1.91A7.35,7.35,0,0,1,280,168a7.16,7.16,0,0,1-.43,2.49,5.59,5.59,0,0,1-1.29,2l1.5,1.19-.77,1-1.74-1.4Zm9.93.42V172.4h0a2.79,2.79,0,0,1-1.1,1.13,3.33,3.33,0,0,1-1.59.36,3.83,3.83,0,0,1-1.36-.22,2.17,2.17,0,0,1-.88-.62,2.29,2.29,0,0,1-.47-1,5.13,5.13,0,0,1-.13-1.22v-5.44H283V171a1.65,1.65,0,0,0,.44,1.21,1.67,1.67,0,0,0,1.24.45,2.78,2.78,0,0,0,1.08-.19,2.19,2.19,0,0,0,.76-.54,2.38,2.38,0,0,0,.45-.83,3.37,3.37,0,0,0,.15-1v-4.67h1.36v8.27Zm8.86-5.84a2.15,2.15,0,0,0-.5-.74,2.21,2.21,0,0,0-.73-.5,2.57,2.57,0,0,0-1.89,0,2.21,2.21,0,0,0-.73.5,2.67,2.67,0,0,0-.48.75,3,3,0,0,0-.21.9h4.76a3.11,3.11,0,0,0-.22-.91Zm.33,5.31a3.77,3.77,0,0,1-2.34.71,4.33,4.33,0,0,1-1.72-.32,3.56,3.56,0,0,1-1.22-.9,3.83,3.83,0,0,1-.75-1.38,7.2,7.2,0,0,1-.28-1.74,5,5,0,0,1,.29-1.73,4.13,4.13,0,0,1,.81-1.36,3.73,3.73,0,0,1,1.23-.89,3.69,3.69,0,0,1,1.56-.32,3.4,3.4,0,0,1,1.83.45,3.6,3.6,0,0,1,1.17,1.16,4.4,4.4,0,0,1,.61,1.54,6.72,6.72,0,0,1,.14,1.58h-6.2a3.47,3.47,0,0,0,.13,1,2.3,2.3,0,0,0,.47.87,2.26,2.26,0,0,0,.81.6,2.81,2.81,0,0,0,1.17.22,2.34,2.34,0,0,0,1.42-.4,1.91,1.91,0,0,0,.72-1.21h1.35a3.3,3.3,0,0,1-1.2,2.09Zm8.3.53V172.4h0a2.85,2.85,0,0,1-1.1,1.13,3.33,3.33,0,0,1-1.59.36,3.79,3.79,0,0,1-1.36-.22,2.17,2.17,0,0,1-.88-.62,2.29,2.29,0,0,1-.47-1,5.11,5.11,0,0,1-.14-1.22v-5.44h1.36V171a1.61,1.61,0,0,0,.45,1.21,1.66,1.66,0,0,0,1.23.45,2.71,2.71,0,0,0,1.08-.19A2,2,0,0,0,304,172a2.25,2.25,0,0,0,.46-.83,3.37,3.37,0,0,0,.15-1v-4.67H306v8.27Zm8.86-5.84a2.38,2.38,0,0,0-1.23-1.24,2.57,2.57,0,0,0-1.89,0,2.11,2.11,0,0,0-.73.5,2.68,2.68,0,0,0-.69,1.65h4.75a2.81,2.81,0,0,0-.21-.91Zm.33,5.31a3.77,3.77,0,0,1-2.34.71,4.29,4.29,0,0,1-1.72-.32,3.47,3.47,0,0,1-1.22-.9,3.68,3.68,0,0,1-.75-1.38,6.74,6.74,0,0,1-.28-1.74,5,5,0,0,1,.29-1.73,4.13,4.13,0,0,1,.81-1.36,3.54,3.54,0,0,1,1.23-.89,3.63,3.63,0,0,1,1.56-.32,3.4,3.4,0,0,1,1.83.45,3.6,3.6,0,0,1,1.17,1.16,4.6,4.6,0,0,1,.61,1.54,6.7,6.7,0,0,1,.13,1.58H309a3.17,3.17,0,0,0,.13,1,2.42,2.42,0,0,0,.46.87,2.39,2.39,0,0,0,.82.6,2.81,2.81,0,0,0,1.17.22,2.31,2.31,0,0,0,1.41-.4,1.92,1.92,0,0,0,.73-1.21h1.35a3.39,3.39,0,0,1-1.2,2.09Z" transform="translate(-0.5 -0.5)"/><path class="cls-3" d="M141.25,141h70.5v35.5h-70.5Zm0,0" transform="translate(-0.5 -0.5)"/><path d="M146.55,147.1v-1H154v1h-3.1v8.25h-1.23V147.1Zm9.69-1v8.25h4.91v1H155v-9.29Zm11.58,9.18a4.43,4.43,0,0,1-1.62.31,4.19,4.19,0,0,1-3.25-1.41,4.58,4.58,0,0,1-.87-1.5,5.19,5.19,0,0,1-.3-1.75,6.44,6.44,0,0,1,.28-1.93,4.65,4.65,0,0,1,.83-1.61,4.15,4.15,0,0,1,1.38-1.1,4.32,4.32,0,0,1,1.93-.41,5.47,5.47,0,0,1,1.42.18,3.66,3.66,0,0,1,1.2.55,3.25,3.25,0,0,1,.88,1,3.75,3.75,0,0,1,.49,1.39H169a2.46,2.46,0,0,0-.33-.91,2.07,2.07,0,0,0-.62-.63,2.45,2.45,0,0,0-.82-.37,3.51,3.51,0,0,0-1-.13,3,3,0,0,0-1.45.34,2.93,2.93,0,0,0-1,.89,4,4,0,0,0-.57,1.26,5.88,5.88,0,0,0-.18,1.45,4.65,4.65,0,0,0,.21,1.4,3.57,3.57,0,0,0,.61,1.18,3,3,0,0,0,1,.82,2.86,2.86,0,0,0,1.37.31,3.21,3.21,0,0,0,1.28-.24,2.66,2.66,0,0,0,1-.64,2.74,2.74,0,0,0,.58-1,3.12,3.12,0,0,0,.16-1.19h-3v-1h4.07v4.89h-.78l-.33-1.16a3.15,3.15,0,0,1-1.35,1.05Zm8.59-4.64a2.1,2.1,0,0,0-.4-.6,1.94,1.94,0,0,0-.6-.41,1.91,1.91,0,0,0-.76-.15,1.94,1.94,0,0,0-.78.15,1.89,1.89,0,0,0-.59.41,2.27,2.27,0,0,0-.39.61,2.51,2.51,0,0,0-.17.73h3.86a2.05,2.05,0,0,0-.17-.74Zm.27,4.32a3.08,3.08,0,0,1-1.9.57,3.5,3.5,0,0,1-1.4-.26,2.69,2.69,0,0,1-1-.73,3,3,0,0,1-.61-1.12,5.62,5.62,0,0,1-.23-1.41,4,4,0,0,1,.24-1.41,3.27,3.27,0,0,1,.65-1.1,3,3,0,0,1,1-.73,3.13,3.13,0,0,1,1.27-.26,2.72,2.72,0,0,1,1.49.37,3,3,0,0,1,1,.94,3.67,3.67,0,0,1,.49,1.25,5.28,5.28,0,0,1,.11,1.29h-5a2.62,2.62,0,0,0,.11.84,2,2,0,0,0,.37.7,2,2,0,0,0,.67.48,2.15,2.15,0,0,0,.95.19,1.91,1.91,0,0,0,1.15-.33,1.55,1.55,0,0,0,.59-1h1.09a2.7,2.7,0,0,1-1,1.71Zm3.26-6.3v1.07h0a2.34,2.34,0,0,1,2.19-1.22,2.91,2.91,0,0,1,1.1.18,1.75,1.75,0,0,1,.72.51,1.8,1.8,0,0,1,.38.77,3.88,3.88,0,0,1,.11,1v4.42h-1.1V150.8a1.3,1.3,0,0,0-.37-1,1.35,1.35,0,0,0-1-.37,2.34,2.34,0,0,0-.88.16,1.6,1.6,0,0,0-.61.44,1.83,1.83,0,0,0-.37.67,2.55,2.55,0,0,0-.13.84v3.8h-1.1v-6.73Zm10.68,2a1.94,1.94,0,0,0-.41-.6,1.78,1.78,0,0,0-.59-.41,1.91,1.91,0,0,0-.76-.15,1.94,1.94,0,0,0-.78.15,1.89,1.89,0,0,0-.59.41,2.27,2.27,0,0,0-.39.61,2.51,2.51,0,0,0-.17.73h3.86a2.05,2.05,0,0,0-.17-.74Zm.26,4.32a3,3,0,0,1-1.89.57,3.5,3.5,0,0,1-1.4-.26,2.73,2.73,0,0,1-1-.73,3.09,3.09,0,0,1-.6-1.12,5.62,5.62,0,0,1-.23-1.41,4,4,0,0,1,.24-1.41,3.27,3.27,0,0,1,.65-1.1,2.87,2.87,0,0,1,1-.73,3.13,3.13,0,0,1,1.27-.26,2.72,2.72,0,0,1,1.49.37,3,3,0,0,1,1,.94,3.67,3.67,0,0,1,.49,1.25,5.28,5.28,0,0,1,.11,1.29h-5a2.62,2.62,0,0,0,.11.84,1.89,1.89,0,0,0,.37.7,2,2,0,0,0,.67.48,2.12,2.12,0,0,0,.95.19,1.91,1.91,0,0,0,1.15-.33,1.59,1.59,0,0,0,.59-1h1.09a2.67,2.67,0,0,1-1,1.71Zm3.23-6.3V150h0a3.05,3.05,0,0,1,1-1.21,2.47,2.47,0,0,1,1.48-.36v1.17a3.15,3.15,0,0,0-1.13.18,1.8,1.8,0,0,0-.75.53,2.31,2.31,0,0,0-.42.86,4.86,4.86,0,0,0-.13,1.15v3h-1.1v-6.73Zm3.39-1.2v-1.36h1.11v1.36Zm1.11,1.2v6.73H197.5v-6.73Zm5.73,1.17a1.71,1.71,0,0,0-1.12-.35,2.14,2.14,0,0,0-1,.22,1.82,1.82,0,0,0-.64.59,2.44,2.44,0,0,0-.35.84,4.46,4.46,0,0,0-.1,1,3.44,3.44,0,0,0,.11.91,2.55,2.55,0,0,0,.34.79,1.79,1.79,0,0,0,.61.55,2.08,2.08,0,0,0,2.18-.22,2,2,0,0,0,.57-1.21h1.13a3.07,3.07,0,0,1-.93,1.92,2.94,2.94,0,0,1-2,.68,3.35,3.35,0,0,1-1.35-.25,2.55,2.55,0,0,1-1-.7,2.89,2.89,0,0,1-.6-1.09,4.34,4.34,0,0,1-.2-1.38,5,5,0,0,1,.19-1.41,3.25,3.25,0,0,1,.59-1.14,2.72,2.72,0,0,1,1-.77,3.19,3.19,0,0,1,1.39-.28,3.69,3.69,0,0,1,1.07.14,2.61,2.61,0,0,1,.89.42,2.44,2.44,0,0,1,.63.72,2.65,2.65,0,0,1,.31,1h-1.15a1.67,1.67,0,0,0-.54-1Z" transform="translate(-0.5 -0.5)"/><path d="M157.25,161.43v1h-4.86v2.95h4.27v1h-4.27v4.25h-1.23v-9.28Zm2.66,0v9.28h-1.24v-9.28Zm6.44,0a3,3,0,0,1,2.08.65,2.24,2.24,0,0,1,.74,1.78,2.77,2.77,0,0,1-.38,1.48,1.93,1.93,0,0,1-1.23.87v0a1.66,1.66,0,0,1,.66.26,1.36,1.36,0,0,1,.4.43,2,2,0,0,1,.22.57,4.41,4.41,0,0,1,.11.65c0,.22,0,.45,0,.69a5.38,5.38,0,0,0,.07.69,3.32,3.32,0,0,0,.15.64,1.57,1.57,0,0,0,.29.54h-1.38a.78.78,0,0,1-.17-.39,4.21,4.21,0,0,1-.06-.55l0-.66a4.06,4.06,0,0,0-.08-.69,4.26,4.26,0,0,0-.13-.64,1.43,1.43,0,0,0-.24-.53,1.17,1.17,0,0,0-.45-.37,1.62,1.62,0,0,0-.72-.14h-3v4H162v-9.28Zm.26,4.21a1.89,1.89,0,0,0,.69-.25,1.41,1.41,0,0,0,.46-.51,1.92,1.92,0,0,0-.21-2,1.62,1.62,0,0,0-1.26-.44h-3.07v3.23h2.57a5.36,5.36,0,0,0,.82-.06Zm8-.22a2.41,2.41,0,0,0,1.51-.37,1.34,1.34,0,0,0,.46-1.11,1.69,1.69,0,0,0-.15-.78,1.24,1.24,0,0,0-.43-.45,1.86,1.86,0,0,0-.63-.2,6.23,6.23,0,0,0-.76,0h-2.47v2.95Zm-.34-4h.64l.68,0,.63.1a1.34,1.34,0,0,1,.5.2,2.32,2.32,0,0,1,.78.75,2.1,2.1,0,0,1,.32,1.18,2.24,2.24,0,0,1-.36,1.28,2.1,2.1,0,0,1-1,.8v0a2.11,2.11,0,0,1,1.31.78,2.35,2.35,0,0,1,.46,1.45,2.6,2.6,0,0,1-.19,1,2.37,2.37,0,0,1-.54.85,2.54,2.54,0,0,1-.88.6,3.07,3.07,0,0,1-1.21.23h-4.49v-9.28Zm1,8.24a1.79,1.79,0,0,0,1.28-.44A1.61,1.61,0,0,0,177,168a1.55,1.55,0,0,0-.17-.76,1.2,1.2,0,0,0-.45-.47,1.82,1.82,0,0,0-.64-.25,3.67,3.67,0,0,0-.75-.07h-2.82v3.21Zm5.56-8.24v9.28h-1.1v-9.28Zm2.69,7a2.24,2.24,0,0,0,.45.79,1.79,1.79,0,0,0,.67.49,2,2,0,0,0,.81.17,2.06,2.06,0,0,0,.81-.17,1.79,1.79,0,0,0,.67-.49,2.24,2.24,0,0,0,.45-.79,3.27,3.27,0,0,0,.16-1.08,3.33,3.33,0,0,0-.16-1.09,2.38,2.38,0,0,0-.45-.8,1.79,1.79,0,0,0-.67-.49,1.9,1.9,0,0,0-.81-.17,1.84,1.84,0,0,0-.81.17,1.79,1.79,0,0,0-.67.49,2.38,2.38,0,0,0-.45.8,3.33,3.33,0,0,0-.17,1.09,3.26,3.26,0,0,0,.17,1.08ZM182.34,166a3.16,3.16,0,0,1,.63-1.12,3,3,0,0,1,1-.74,3.32,3.32,0,0,1,1.41-.28,3.26,3.26,0,0,1,1.41.28,3,3,0,0,1,1,.74,3.14,3.14,0,0,1,.62,1.12,4.45,4.45,0,0,1,.21,1.39,4.32,4.32,0,0,1-.21,1.37,3.14,3.14,0,0,1-.62,1.12,3,3,0,0,1-1,.74,3.58,3.58,0,0,1-1.41.26,3.65,3.65,0,0,1-1.41-.26,3,3,0,0,1-1-.74,3.16,3.16,0,0,1-.63-1.12,4.32,4.32,0,0,1-.21-1.37,4.45,4.45,0,0,1,.21-1.39Zm11.64-.81a1.65,1.65,0,0,0-1.12-.35,2,2,0,0,0-1,.22,1.79,1.79,0,0,0-.64.58,2.41,2.41,0,0,0-.35.84,4.59,4.59,0,0,0-.1,1,3.39,3.39,0,0,0,.11.91,2.45,2.45,0,0,0,.34.79,1.79,1.79,0,0,0,.61.55,1.81,1.81,0,0,0,.9.21,1.79,1.79,0,0,0,1.28-.43,1.92,1.92,0,0,0,.57-1.21h1.13a3.1,3.1,0,0,1-.93,1.93,2.93,2.93,0,0,1-2,.67,3.62,3.62,0,0,1-1.36-.24,2.61,2.61,0,0,1-1-.71,2.85,2.85,0,0,1-.6-1.08,4.36,4.36,0,0,1-.2-1.39,5,5,0,0,1,.19-1.41,3.34,3.34,0,0,1,.59-1.14,2.83,2.83,0,0,1,1-.77,3.35,3.35,0,0,1,1.39-.28,4.07,4.07,0,0,1,1.07.14,2.71,2.71,0,0,1,.89.42,2.44,2.44,0,0,1,.63.72,2.89,2.89,0,0,1,.31,1h-1.15a1.61,1.61,0,0,0-.54-1Zm4.13-3.73v5.5l3.07-2.94h1.48L200,166.43l2.86,4.28h-1.41l-2.3-3.51-1,1v2.55H197v-9.28Z" transform="translate(-0.5 -0.5)"/><path class="cls-3" d="M25.75,91h301.5v21.5H25.75Zm0,0" transform="translate(-0.5 -0.5)"/><path d="M165.84,100.91a3.93,3.93,0,0,0,2.45-.6,2.16,2.16,0,0,0,.74-1.8,2.63,2.63,0,0,0-.25-1.26,1.88,1.88,0,0,0-.69-.71,2.5,2.5,0,0,0-1-.32,9.41,9.41,0,0,0-1.23-.08h-4v4.77Zm-.54-6.45h1c.37,0,.73,0,1.1.07a7.81,7.81,0,0,1,1,.15,2.69,2.69,0,0,1,.81.32,3.8,3.8,0,0,1,1.24,1.22,3.3,3.3,0,0,1,.52,1.91,3.66,3.66,0,0,1-.58,2.07,3.36,3.36,0,0,1-1.65,1.29v0a3.47,3.47,0,0,1,2.12,1.26,3.77,3.77,0,0,1,.74,2.35,4.62,4.62,0,0,1-.29,1.6,4,4,0,0,1-.88,1.37,4.41,4.41,0,0,1-1.42,1,5.05,5.05,0,0,1-2,.37h-7.24v-15Zm1.55,13.32a2.87,2.87,0,0,0,2.07-.72,2.57,2.57,0,0,0,.74-2,2.48,2.48,0,0,0-.27-1.22,2.13,2.13,0,0,0-.72-.77,3.09,3.09,0,0,0-1-.4,6.92,6.92,0,0,0-1.22-.11h-4.56v5.19Zm14.41,1.68v-1.73h0a3.55,3.55,0,0,1-1.44,1.48,4.32,4.32,0,0,1-2.08.48,4.86,4.86,0,0,1-1.79-.29,2.76,2.76,0,0,1-1.15-.81,2.91,2.91,0,0,1-.62-1.24,6.72,6.72,0,0,1-.18-1.61V98.6h1.78V106a2,2,0,0,0,2.21,2.18,3.64,3.64,0,0,0,1.42-.25,2.65,2.65,0,0,0,1-.71,3,3,0,0,0,.6-1.08,4.56,4.56,0,0,0,.2-1.36V98.6h1.79v10.86ZM187,107a2,2,0,0,0,.66.65,3,3,0,0,0,.92.35,5.39,5.39,0,0,0,1.07.1,6.85,6.85,0,0,0,.88-.06,3.22,3.22,0,0,0,.85-.23,1.64,1.64,0,0,0,.64-.49,1.32,1.32,0,0,0,.25-.83,1.17,1.17,0,0,0-.52-1,4.49,4.49,0,0,0-1.32-.58c-.52-.15-1.09-.28-1.71-.4A9.49,9.49,0,0,1,187,104a3.56,3.56,0,0,1-1.31-.92,2.38,2.38,0,0,1-.53-1.64,2.54,2.54,0,0,1,.37-1.4,3.08,3.08,0,0,1,.94-1,4.26,4.26,0,0,1,1.31-.54,5.92,5.92,0,0,1,1.44-.18,9,9,0,0,1,1.7.15,4.06,4.06,0,0,1,1.37.55,2.86,2.86,0,0,1,1,1,3.92,3.92,0,0,1,.42,1.65h-1.79a1.86,1.86,0,0,0-.27-.87,1.76,1.76,0,0,0-.59-.56,2.59,2.59,0,0,0-.79-.3,3.57,3.57,0,0,0-.87-.1,5.73,5.73,0,0,0-.81.06,2.79,2.79,0,0,0-.74.23,1.37,1.37,0,0,0-.55.42,1,1,0,0,0-.21.68,1,1,0,0,0,.33.76,2.34,2.34,0,0,0,.83.51,7.26,7.26,0,0,0,1.13.33l1.26.29c.45.1.89.22,1.31.35a4.66,4.66,0,0,1,1.14.56,2.78,2.78,0,0,1,.8.87,2.6,2.6,0,0,1,.3,1.3,2.94,2.94,0,0,1-1.48,2.69,4.51,4.51,0,0,1-1.49.56,9.22,9.22,0,0,1-1.65.16,8,8,0,0,1-1.72-.19,4.22,4.22,0,0,1-1.45-.62,3.18,3.18,0,0,1-1-1.14,4,4,0,0,1-.42-1.71h1.79a1.93,1.93,0,0,0,.27,1Z" transform="translate(-0.5 -0.5)"/><line class="cls-3" x1="176" y1="45.9" x2="176" y2="80.6"/><path d="M176.5,89.1l3-8h-6Zm0,0" transform="translate(-0.5 -0.5)"/><path class="cls-4" d="M176.5,89.1l3-8h-6Zm0,0" transform="translate(-0.5 -0.5)"/><path d="M176.5,38.4l-3,8h6Zm0,0" transform="translate(-0.5 -0.5)"/><path class="cls-4" d="M176.5,38.4l-3,8h6Zm0,0" transform="translate(-0.5 -0.5)"/><line class="cls-3" x1="60.5" y1="121.9" x2="60.5" y2="130.56"/><path d="M61,139.06l3-8H58Zm0,0" transform="translate(-0.5 -0.5)"/><path class="cls-4" d="M61,139.06l3-8H58Zm0,0" transform="translate(-0.5 -0.5)"/><path d="M61,114.4l-3,8h6Zm0,0" transform="translate(-0.5 -0.5)"/><path class="cls-4" d="M61,114.4l-3,8h6Zm0,0" transform="translate(-0.5 -0.5)"/><line class="cls-3" x1="291.11" y1="121.9" x2="291.2" y2="130.56"/><path d="M291.79,139.06l2.91-8-6,.06Zm0,0" transform="translate(-0.5 -0.5)"/><path class="cls-4" d="M291.79,139.06l2.91-8-6,.06Zm0,0" transform="translate(-0.5 -0.5)"/><path d="M291.52,114.4l-2.91,8,6-.06Zm0,0" transform="translate(-0.5 -0.5)"/><path class="cls-4" d="M291.52,114.4l-2.91,8,6-.06Zm0,0" transform="translate(-0.5 -0.5)"/><line class="cls-3" x1="95.75" y1="158.21" x2="130.85" y2="158.21"/><path d="M139.35,158.71l-8-3v6Zm0,0" transform="translate(-0.5 -0.5)"/><path class="cls-4" d="M139.35,158.71l-8-3v6Zm0,0" transform="translate(-0.5 -0.5)"/><line class="cls-3" x1="211.25" y1="158.21" x2="246.35" y2="158.21"/><path d="M254.85,158.71l-8-3v6Zm0,0" transform="translate(-0.5 -0.5)"/><path class="cls-4" d="M254.85,158.71l-8-3v6Zm0,0" transform="translate(-0.5 -0.5)"/></svg>
